<svg width="72" height="64" viewBox="0 0 72 64" fill="none" xmlns="http://www.w3.org/2000/svg">
<g clip-path="url(#clip0)">
<path d="M29.7051 36.2539C28.9022 33.0769 28.684 29.8652 28.989 26.7437C28.9883 26.7417 28.9883 26.7417 28.9883 26.7417C24.4707 21.4842 17.0123 19.2917 10.1203 21.8002C7.86728 22.6202 5.89296 23.8615 4.25038 25.4065C2.41566 27.1128 1.67746 29.8144 2.58924 32.3196C2.62298 32.4123 2.65801 32.5022 2.69706 32.5907C2.71667 32.6383 2.73629 32.686 2.75792 32.7329C2.79477 32.8153 2.83089 32.8958 2.86902 32.9755C6.37459 40.4957 14.8058 44.4339 22.8102 42.2942C21.7561 44.7229 21.5934 47.546 22.5712 50.2325C22.5946 50.297 22.6181 50.3615 22.6436 50.4253C22.6896 50.5454 22.7377 50.6649 22.7897 50.7829C22.8238 50.8641 22.8599 50.9445 22.8953 51.0229C22.9688 51.181 23.0469 51.3329 23.131 51.4826C23.1345 51.4859 23.1367 51.4919 23.1389 51.498C23.4455 52.046 23.8257 52.533 24.2624 52.956L24.2632 52.958C25.9752 54.6172 28.5464 55.2539 30.9364 54.3841C34.0149 53.2636 35.7167 50.0332 35.0023 46.9176C34.9974 46.9103 34.9904 46.9037 34.9855 46.8963C34.0369 45.7124 33.1775 44.4412 32.4222 43.0865C32.4215 43.0845 32.4195 43.0852 32.4188 43.0832C32.4138 43.0759 32.4109 43.0678 32.4059 43.0605C32.3935 43.0514 32.381 43.0422 32.3686 43.033C32.3658 43.0317 32.3623 43.0285 32.3596 43.0272C32.3627 43.0169 32.3678 43.0059 32.3702 42.9936C31.6695 41.7263 31.0578 40.3901 30.5472 38.9874C30.4423 38.6993 30.3415 38.4096 30.2474 38.1197C30.0445 37.4997 29.8633 36.8764 29.7051 36.2539ZM23.2095 35.8359C22.9284 35.9907 22.6324 36.1235 22.3223 36.2364C19.2116 37.3686 15.791 35.9455 14.359 33.0386C14.2556 32.8298 14.1628 32.6125 14.0814 32.3888L14.0755 32.3726C13.6947 31.3199 14.1011 30.1312 15.0313 29.5233C15.0546 29.5057 15.0793 29.4922 15.1033 29.4766C15.576 29.1904 16.0963 28.9599 16.66 28.7982C19.7542 27.9025 23.0927 29.4946 24.3495 32.4653C24.3589 32.4847 24.3662 32.5049 24.3748 32.5223C24.8834 33.7568 24.3775 35.1985 23.2095 35.8359Z" fill="#2396F3"/>
<path d="M32.2789 23.2526C34.5029 22.4431 35.649 19.9823 34.8387 17.7561C34.0285 15.53 31.5687 14.3816 29.3448 15.1911C27.1208 16.0005 25.9747 18.4614 26.7849 20.6875C27.5952 22.9136 30.0549 24.062 32.2789 23.2526Z" fill="#FED955"/>
<path d="M40.171 34.9182C39.2166 32.2209 38.2053 30.1126 37.2284 28.5625C37.2056 28.5251 37.1849 28.487 37.1642 28.4489L37.1582 28.4511C33.9419 23.4297 31.1181 24.4483 31.885 30.3704L31.8789 30.3726C31.8837 30.3982 31.8905 30.4231 31.896 30.4508C32.1402 32.2745 32.7218 34.5552 33.734 37.2611C34.6999 39.9838 35.7204 42.1047 36.7036 43.6595C36.7164 43.6822 36.7272 43.7057 36.7408 43.7304L36.7468 43.7282C39.966 48.7577 42.7839 47.7229 42.02 41.8089L42.0261 41.8067C42.0195 41.7635 42.0108 41.721 42.0022 41.6785C41.7541 39.863 41.1737 37.5979 40.171 34.9182Z" fill="#2C4154"/>
<path d="M43.3016 33.0896C43.4159 33.3722 43.5248 33.6589 43.6297 33.9471C44.1402 35.3498 44.5305 36.7666 44.8083 38.1878C44.8181 38.1957 44.829 38.2008 44.838 38.2067C44.8367 38.2094 44.8362 38.2142 44.8349 38.2169C44.8313 38.2319 44.8276 38.247 44.824 38.262C44.8249 38.2708 44.8278 38.2789 44.8287 38.2876C44.8295 38.2897 44.8274 38.2904 44.8282 38.2924C45.1204 39.8157 45.2791 41.3418 45.3135 42.8585C45.3145 42.8673 45.3134 42.8768 45.3143 42.8856C46.7696 45.7315 50.1498 47.1122 53.2283 45.9917C55.6183 45.1219 57.1787 42.9814 57.4237 40.6099L57.4229 40.6079C57.4855 40.0031 57.4638 39.3856 57.3464 38.7687C57.3442 38.7627 57.342 38.7567 57.3425 38.7519C57.3108 38.5831 57.273 38.4166 57.2276 38.2482C57.2043 38.1654 57.1803 38.0806 57.1542 37.9965C57.1183 37.8726 57.0783 37.7503 57.0363 37.6286C57.0148 37.5634 56.9914 37.4989 56.9679 37.4344C55.9901 34.7479 54.0508 32.6898 51.6821 31.507C59.1892 28.0009 63.1165 19.5646 60.968 11.5504C60.946 11.4649 60.9219 11.38 60.8972 11.2932C60.8836 11.2434 60.868 11.1943 60.8524 11.1452C60.8254 11.0523 60.7944 10.9608 60.7607 10.8681C59.8489 8.36303 57.5468 6.76794 55.0446 6.6402C52.7932 6.51248 50.4829 6.83069 48.2299 7.65073C41.3378 10.1592 37.0337 16.6329 36.9525 23.5642C36.9525 23.5642 36.9525 23.5642 36.9533 23.5663C39.1933 25.7614 41.0907 28.362 42.5177 31.3117C42.7967 31.8903 43.0585 32.4843 43.3016 33.0896ZM44.2023 25.0269C44.1977 25.0081 44.1904 24.9879 44.1851 24.967C43.2383 21.8835 44.7723 18.5179 47.7184 17.2151C48.2541 16.9767 48.8009 16.8188 49.347 16.7342C49.3754 16.7307 49.403 16.7252 49.4321 16.7237C50.5355 16.5914 51.6109 17.2408 51.9958 18.2921L52.0017 18.3082C52.0831 18.5319 52.1517 18.758 52.2068 18.9844C52.9783 22.1317 51.2727 25.4206 48.162 26.5528C47.8519 26.6657 47.5398 26.7541 47.2249 26.8162C45.9205 27.0788 44.6062 26.2995 44.2023 25.0269Z" fill="#F25A75"/>
</g>
<defs>
<clipPath id="clip0">
<rect width="62" height="38" fill="white" transform="translate(0 25.2051) rotate(-20)"/>
</clipPath>
</defs>
</svg>
